<?xml version="1.0" encoding="utf-8"?>
<!-- Svg Vector Icons : http://www.onlinewebfonts.com/icon -->
<!DOCTYPE svg PUBLIC "-//W3C//DTD SVG 1.1//EN" "http://www.w3.org/Graphics/SVG/1.1/DTD/svg11.dtd">
<svg version="1.1" xmlns="http://www.w3.org/2000/svg" xmlns:xlink="http://www.w3.org/1999/xlink" x="0px" y="0px" viewBox="0 0 1000 1000" enable-background="new 0 0 1000 1000" xml:space="preserve">
<metadata> Svg Vector Icons : http://www.onlinewebfonts.com/icon </metadata>
<g><g><path d="M910.2,89c-50.4-50.3-116.7-79-182.1-79c-55.2,0-105.9,20.5-143,57.5L436.1,217.7c-0.5,0.4-1,0.7-1.4,1.2c-0.2,0.2-0.4,0.6-0.6,0.8l0.1,0.1L117.7,538.5c-14.6,14.5-25.1,32.5-31,52.2L14.7,851.2c-0.1,0.7-4.7,21.2-4.7,31.6C10,942,58.1,990,117.3,990c11.8,0,34.6-5.6,35.4-5.8L412.4,916c19.7-5.8,37.6-16.5,52.2-31.1l467.4-471.1C1017.1,328.7,1007.5,186.1,910.2,89z M500.4,738.7c-2.5-27.6-10.3-54.7-22-80.5L768,368.7c17.7,55.9,8.6,114.4-30.2,153.3c-0.2,0.2-0.6,0.4-0.8,0.6l0.4,0.4L500.8,761.6C500.8,754,501.1,746.5,500.4,738.7z M463,630.3c-11.4-18.8-24.4-36.9-40.5-53c-18.7-18.7-40.2-33.4-62.6-45.7l291.9-291.9c22.9,10.2,44.9,24.7,64.3,44c16.6,16.5,29.4,35,39.2,54.2L463,630.3z M331.1,517.2c-28.4-11.4-58.1-17.9-87.8-18.3l235.9-237.7c36.1-35.2,88.7-45.4,140.5-32.5L331.1,517.2z M137.6,924.9c-3.3,0.8-13.7,3.4-20.8,3.9c-25.2-0.3-45.6-20.8-45.6-45.9c0.4-5.1,2.4-14,3.1-17.2l32.2-116.8c35-0.9,72.7,12.7,102.3,42.4c30.1,30,44.2,68.4,42.7,103.9L137.6,924.9L137.6,924.9z M281.8,887c-0.7-41.1-17.5-83.9-51.2-117.5c-31.9-31.9-73.7-50.4-115.3-52L145.7,607c2.2-7.3,6.6-14.6,12-20.9c61.4-44,155.9-31,221.5,34.7c69.4,69.4,80.1,171.1,26.7,231.8c-3.6,1.9-7.1,3.6-11,4.8L281.8,887z M888.7,370.5l-51.6,52c0-6.9,0.8-13.6,0.2-20.6c-5.4-59.3-33-116.6-77.9-161.4c-49.9-49.9-116-78.6-181.6-78.7l50.7-51.1c25.4-25.3,60.8-39.4,99.6-39.4c49.3,0,99.9,22.3,138.8,61.1c36.5,36.5,58.3,81.8,61.4,127.6C931.3,302.8,917.2,342,888.7,370.5z"/></g></g>
</svg>