<?xml version="1.0" encoding="iso-8859-1"?>
<!-- Generator: Adobe Illustrator 19.0.0, SVG Export Plug-In . SVG Version: 6.00 Build 0)  -->
<svg version="1.1" id="Capa_1" xmlns="http://www.w3.org/2000/svg" xmlns:xlink="http://www.w3.org/1999/xlink" x="0px" y="0px"
	 viewBox="0 0 480 480" style="enable-background:new 0 0 480 480;" xml:space="preserve">
<linearGradient id="SVGID_1_" gradientUnits="userSpaceOnUse" x1="-43.3495" y1="558.515" x2="-43.3495" y2="620.464" gradientTransform="matrix(8 0 0 -8 586.7959 4941)">
	<stop  offset="0" style="stop-color:#006DF0"/>
	<stop  offset="1" style="stop-color:#00E7F0"/>
</linearGradient>
<path style="fill:url(#SVGID_1_);" d="M450.828,458.344l-37.656-37.656V136c0-0.168-0.088-0.312-0.096-0.48
	c-0.047-0.726-0.192-1.442-0.432-2.128c-0.075-0.255-0.163-0.506-0.264-0.752c-0.374-0.829-0.885-1.589-1.512-2.248l-0.048-0.056
	l-45.648-45.648V8c0-4.418-3.582-8-8-8h-320c-4.418,0-8,3.582-8,8v432c0,4.418,3.582,8,8,8h40v24c0,4.418,3.582,8,8,8h320
	c4.418,0,8-3.582,8-8v-28.688l26.344,26.344L450.828,458.344z M317.172,59.312L385.86,128h-68.688V59.312z M45.172,432V16h304
	v52.688l-34.336-34.336l-0.064-0.048c-0.656-0.625-1.414-1.133-2.24-1.504c-0.104-0.048-0.184-0.136-0.288-0.176
	s-0.36-0.056-0.528-0.12c-0.659-0.225-1.345-0.36-2.04-0.4c-0.168-0.016-0.328-0.104-0.504-0.104h-224c-4.418,0-8,3.582-8,8v392
	H45.172z M397.172,464h-304V48h208v88c0,4.418,3.582,8,8,8h88v260.688l-49.08-49.08c37.449-43.696,32.384-109.477-11.312-146.926
	s-109.477-32.384-146.926,11.312s-32.384,109.477,11.312,146.926c39.02,33.441,96.594,33.441,135.614,0l60.392,60.392V464z
	 M269.172,376c-48.601,0.002-88.001-39.396-88.003-87.997s39.396-88.001,87.997-88.003c48.601-0.002,88.001,39.396,88.003,87.997
	c0.001,23.339-9.27,45.723-25.773,62.227C314.887,366.718,292.508,375.988,269.172,376z"/>
<g>
	
		<linearGradient id="SVGID_2_" gradientUnits="userSpaceOnUse" x1="-42.703" y1="558.515" x2="-42.703" y2="620.464" gradientTransform="matrix(8 0 0 -8 586.7959 4941)">
		<stop  offset="0" style="stop-color:#006DF0"/>
		<stop  offset="1" style="stop-color:#00E7F0"/>
	</linearGradient>
	<path style="fill:url(#SVGID_2_);" d="M221.172,272h48c4.418,0,8-3.582,8-8s-3.582-8-8-8h-48c-4.418,0-8,3.582-8,8
		S216.754,272,221.172,272z"/>
	
		<linearGradient id="SVGID_3_" gradientUnits="userSpaceOnUse" x1="-39.703" y1="558.515" x2="-39.703" y2="620.464" gradientTransform="matrix(8 0 0 -8 586.7959 4941)">
		<stop  offset="0" style="stop-color:#006DF0"/>
		<stop  offset="1" style="stop-color:#00E7F0"/>
	</linearGradient>
	<path style="fill:url(#SVGID_3_);" d="M317.172,304h-96c-4.418,0-8,3.582-8,8s3.582,8,8,8h96c4.418,0,8-3.582,8-8
		S321.59,304,317.172,304z"/>
</g>
<g>
</g>
<g>
</g>
<g>
</g>
<g>
</g>
<g>
</g>
<g>
</g>
<g>
</g>
<g>
</g>
<g>
</g>
<g>
</g>
<g>
</g>
<g>
</g>
<g>
</g>
<g>
</g>
<g>
</g>
</svg>
