<svg xmlns="http://www.w3.org/2000/svg" width="1600" height="900" viewBox="-435 -131.006 1600 900"><defs><linearGradient id="gradient-2" x1="342.802" x2="342.802" y1="-83.23" y2="816.77" gradientTransform="matrix(0.647119, 0, 0, 0.647119, 151.939697, 60.51112)" gradientUnits="userSpaceOnUse" spreadMethod="pad"><stop offset="0" style="stop-color:#193747"/><stop offset=".524" style="stop-color:#3c929e"/><stop offset="1" style="stop-color:#d5d5d4"/></linearGradient></defs><rect width="1600" height="900" x="-435" y="-131.006" style="fill:url(#gradient-2);fill-rule:evenodd"/><path d="M 83.75 93.994 L 646.25 93.994 C 656.605 93.994 665 102.389 665 112.744 L 665 525.244 C 665 535.599 656.605 543.994 646.25 543.994 L 83.75 543.994 C 73.395 543.994 65 535.599 65 525.244 L 65 112.744 C 65 102.389 73.395 93.994 83.75 93.994 Z M 624.875 512.119 C 629.017 512.119 632.375 508.762 632.375 504.619 L 632.375 133.369 C 632.375 129.227 629.017 125.869 624.875 125.869 L 266.985 125.869 L 266.985 512.119 Z" style="fill:#fff"/></svg>